TITLE ""
FILE "P1Q_j_1828-1841.mp3" MP3
  TRACK 01 AUDIO
    TITLE "P1Q_j_1828-1841_01"
    INDEX 01 00:00:00
  TRACK 02 AUDIO
    TITLE "P1Q_j_1828-1841_02"
    INDEX 01 00:00:10
  TRACK 03 AUDIO
    TITLE "P1Q_j_1828-1841_03"
    INDEX 01 00:01:43
  TRACK 04 AUDIO
    TITLE "P1Q_j_1828-1841_04"
    INDEX 01 00:01:63
  TRACK 05 AUDIO
    TITLE "P1Q_j_1828-1841_05"
    INDEX 01 00:07:10
  TRACK 06 AUDIO
    TITLE "P1Q_j_1828-1841_06"
    INDEX 01 00:07:30
  TRACK 07 AUDIO
    TITLE "P1Q_j_1828-1841_07"
    INDEX 01 00:10:58
  TRACK 08 AUDIO
    TITLE "P1Q_j_1828-1841_08"
    INDEX 01 00:11:28
  TRACK 09 AUDIO
    TITLE "P1Q_j_1828-1841_09"
    INDEX 01 00:12:61
  TRACK 10 AUDIO
    TITLE "P1Q_j_1828-1841_10"
    INDEX 01 00:13:07
  TRACK 11 AUDIO
    TITLE "P1Q_j_1828-1841_11"
    INDEX 01 00:18:42
  TRACK 12 AUDIO
    TITLE "P1Q_j_1828-1841_12"
    INDEX 01 00:18:61
  TRACK 13 AUDIO
    TITLE "P1Q_j_1828-1841_13"
    INDEX 01 00:22:26
  TRACK 14 AUDIO
    TITLE "P1Q_j_1828-1841_14"
    INDEX 01 00:22:73
  TRACK 15 AUDIO
    TITLE "P1Q_j_1828-1841_15"
    INDEX 01 00:24:56
  TRACK 16 AUDIO
    TITLE "P1Q_j_1828-1841_16"
    INDEX 01 00:25:00
  TRACK 17 AUDIO
    TITLE "P1Q_j_1828-1841_17"
    INDEX 01 00:29:18
  TRACK 18 AUDIO
    TITLE "P1Q_j_1828-1841_18"
    INDEX 01 00:29:37
  TRACK 19 AUDIO
    TITLE "P1Q_j_1828-1841_19"
    INDEX 01 00:33:33
  TRACK 20 AUDIO
    TITLE "P1Q_j_1828-1841_20"
    INDEX 01 00:34:03
  TRACK 21 AUDIO
    TITLE "P1Q_j_1828-1841_21"
    INDEX 01 00:35:28
  TRACK 22 AUDIO
    TITLE "P1Q_j_1828-1841_22"
    INDEX 01 00:35:52
  TRACK 23 AUDIO
    TITLE "P1Q_j_1828-1841_23"
    INDEX 01 00:41:74
  TRACK 24 AUDIO
    TITLE "P1Q_j_1828-1841_24"
    INDEX 01 00:42:19
  TRACK 25 AUDIO
    TITLE "P1Q_j_1828-1841_25"
    INDEX 01 00:46:22
  TRACK 26 AUDIO
    TITLE "P1Q_j_1828-1841_26"
    INDEX 01 00:46:67
  TRACK 27 AUDIO
    TITLE "P1Q_j_1828-1841_27"
    INDEX 01 00:48:33
  TRACK 28 AUDIO
    TITLE "P1Q_j_1828-1841_28"
    INDEX 01 00:48:54
  TRACK 29 AUDIO
    TITLE "P1Q_j_1828-1841_29"
    INDEX 01 00:52:70
  TRACK 30 AUDIO
    TITLE "P1Q_j_1828-1841_30"
    INDEX 01 00:53:14
  TRACK 31 AUDIO
    TITLE "P1Q_j_1828-1841_31"
    INDEX 01 00:57:46
  TRACK 32 AUDIO
    TITLE "P1Q_j_1828-1841_32"
    INDEX 01 00:58:16
  TRACK 33 AUDIO
    TITLE "P1Q_j_1828-1841_33"
    INDEX 01 00:59:70
  TRACK 34 AUDIO
    TITLE "P1Q_j_1828-1841_34"
    INDEX 01 01:00:14
  TRACK 35 AUDIO
    TITLE "P1Q_j_1828-1841_35"
    INDEX 01 01:04:46
  TRACK 36 AUDIO
    TITLE "P1Q_j_1828-1841_36"
    INDEX 01 01:04:65
  TRACK 37 AUDIO
    TITLE "P1Q_j_1828-1841_37"
    INDEX 01 01:08:49
  TRACK 38 AUDIO
    TITLE "P1Q_j_1828-1841_38"
    INDEX 01 01:09:21
  TRACK 39 AUDIO
    TITLE "P1Q_j_1828-1841_39"
    INDEX 01 01:10:46
  TRACK 40 AUDIO
    TITLE "P1Q_j_1828-1841_40"
    INDEX 01 01:10:68
  TRACK 41 AUDIO
    TITLE "P1Q_j_1828-1841_41"
    INDEX 01 01:16:72
  TRACK 42 AUDIO
    TITLE "P1Q_j_1828-1841_42"
    INDEX 01 01:17:17
  TRACK 43 AUDIO
    TITLE "P1Q_j_1828-1841_43"
    INDEX 01 01:21:01
  TRACK 44 AUDIO
    TITLE "P1Q_j_1828-1841_44"
    INDEX 01 01:21:46
  TRACK 45 AUDIO
    TITLE "P1Q_j_1828-1841_45"
    INDEX 01 01:23:06
  TRACK 46 AUDIO
    TITLE "P1Q_j_1828-1841_46"
    INDEX 01 01:23:29
  TRACK 47 AUDIO
    TITLE "P1Q_j_1828-1841_47"
    INDEX 01 01:27:09
  TRACK 48 AUDIO
    TITLE "P1Q_j_1828-1841_48"
    INDEX 01 01:27:29
  TRACK 49 AUDIO
    TITLE "P1Q_j_1828-1841_49"
    INDEX 01 01:31:15
  TRACK 50 AUDIO
    TITLE "P1Q_j_1828-1841_50"
    INDEX 01 01:31:60
  TRACK 51 AUDIO
    TITLE "P1Q_j_1828-1841_51"
    INDEX 01 01:33:00
  TRACK 52 AUDIO
    TITLE "P1Q_j_1828-1841_52"
    INDEX 01 01:33:20
  TRACK 53 AUDIO
    TITLE "P1Q_j_1828-1841_53"
    INDEX 01 01:35:46
  TRACK 54 AUDIO
    TITLE "P1Q_j_1828-1841_54"
    INDEX 01 01:35:66
  TRACK 55 AUDIO
    TITLE "P1Q_j_1828-1841_55"
    INDEX 01 01:40:20
  TRACK 56 AUDIO
    TITLE "P1Q_j_1828-1841_56"
    INDEX 01 01:40:65
  TRACK 57 AUDIO
    TITLE "P1Q_j_1828-1841_57"
    INDEX 01 01:42:44
  TRACK 58 AUDIO
    TITLE "P1Q_j_1828-1841_58"
    INDEX 01 01:42:64
  TRACK 59 AUDIO
    TITLE "P1Q_j_1828-1841_59"
    INDEX 01 01:47:63
  TRACK 60 AUDIO
    TITLE "P1Q_j_1828-1841_60"
    INDEX 01 01:48:06
  TRACK 61 AUDIO
    TITLE "P1Q_j_1828-1841_61"
    INDEX 01 01:51:14
  TRACK 62 AUDIO
    TITLE "P1Q_j_1828-1841_62"
    INDEX 01 01:51:61
  TRACK 63 AUDIO
    TITLE "P1Q_j_1828-1841_63"
    INDEX 01 01:53:26
  TRACK 64 AUDIO
    TITLE "P1Q_j_1828-1841_64"
    INDEX 01 01:53:48
  TRACK 65 AUDIO
    TITLE "P1Q_j_1828-1841_65"
    INDEX 01 01:56:07
  TRACK 66 AUDIO
    TITLE "P1Q_j_1828-1841_66"
    INDEX 01 01:56:27
  TRACK 67 AUDIO
    TITLE "P1Q_j_1828-1841_67"
    INDEX 01 02:01:16
  TRACK 68 AUDIO
    TITLE "P1Q_j_1828-1841_68"
    INDEX 01 02:01:65
  TRACK 69 AUDIO
    TITLE "P1Q_j_1828-1841_69"
    INDEX 01 02:03:19
  TRACK 70 AUDIO
    TITLE "P1Q_j_1828-1841_70"
    INDEX 01 02:03:42
  TRACK 71 AUDIO
    TITLE "P1Q_j_1828-1841_71"
    INDEX 01 02:06:72
  TRACK 72 AUDIO
    TITLE "P1Q_j_1828-1841_72"
    INDEX 01 02:07:15
  TRACK 73 AUDIO
    TITLE "P1Q_j_1828-1841_73"
    INDEX 01 02:11:32
  TRACK 74 AUDIO
    TITLE "P1Q_j_1828-1841_74"
    INDEX 01 02:12:08
  TRACK 75 AUDIO
    TITLE "P1Q_j_1828-1841_75"
    INDEX 01 02:13:31
  TRACK 76 AUDIO
    TITLE "P1Q_j_1828-1841_76"
    INDEX 01 02:13:53
  TRACK 77 AUDIO
    TITLE "P1Q_j_1828-1841_77"
    INDEX 01 02:18:26
  TRACK 78 AUDIO
    TITLE "P1Q_j_1828-1841_78"
    INDEX 01 02:18:46
  TRACK 79 AUDIO
    TITLE "P1Q_j_1828-1841_79"
    INDEX 01 02:22:67
  TRACK 80 AUDIO
    TITLE "P1Q_j_1828-1841_80"
    INDEX 01 02:23:37
  TRACK 81 AUDIO
    TITLE "P1Q_j_1828-1841_81"
    INDEX 01 02:24:64
  TRACK 82 AUDIO
    TITLE "P1Q_j_1828-1841_82"
    INDEX 01 02:25:11
  TRACK 83 AUDIO
    TITLE "P1Q_j_1828-1841_83"
    INDEX 01 02:29:01
  TRACK 84 AUDIO
    TITLE "P1Q_j_1828-1841_84"
    INDEX 01 02:29:20
  TRACK 85 AUDIO
    TITLE "P1Q_j_1828-1841_85"
    INDEX 01 02:33:45
